# xmcd CD database file
#
# Track frame offsets:
#	150
#	17527
#	38520
#	56357
#	82932
#	100835
#	126022
#	144075
#
# Disc length: 2186 seconds
#
# Revision: 0
# Processed by: cddbd v1.5.1PL2 Copyright (c) Steve Scherf et al.
# Submitted via: CDex 1.60beta1
#
DISCID=4f088808
DTITLE=Cannonball Adderley - Cannonball Enroute
DYEAR=1957
DGENRE=Jazz
TTITLE0=A Foggy Day
TTITLE1=Hoppin' John
TTITLE2=18th Century Ballroom
TTITLE3=That Funky Train
TTITLE4=Lover Man
TTITLE5=I'll Remember April
TTITLE6=Porky
TTITLE7=The Way You Look Tonight
EXTD=YEAR: 1957
EXTT0=
EXTT1=
EXTT2=
EXTT3=
EXTT4=
EXTT5=
EXTT6=
EXTT7=
PLAYORDER=
